HIERARCHY
ROOT Pelvis
{
	OFFSET 0.000000 0.000000 0.000000
	CHANNELS 6 Xposition Yposition Zposition Xrotation Yrotation Zrotation
	JOINT LeftUpLeg_virtual
	{
		OFFSET 0.000000 0.000000 0.000000
		CHANNELS 3 Xrotation Yrotation Zrotation
		JOINT LeftUpLeg
		{
			OFFSET 18.735201 -5.666702 -4.541200
			CHANNELS 3 Xrotation Yrotation Zrotation
			JOINT LeftLeg
			{
				OFFSET -0.021200 -31.938179 0.493100
				CHANNELS 3 Xrotation Yrotation Zrotation
				JOINT LeftFoot
				{
					OFFSET 0.021200 -31.938179 -4.336299
					CHANNELS 3 Xrotation Yrotation Zrotation
					JOINT LeftToeBase
					{
						OFFSET 0.943001 -26.722000 15.023500
						CHANNELS 3 Xrotation Yrotation Zrotation
						End Site
						{
							OFFSET 0 0 0
						}
					}
				}
			}
		}
	}
	JOINT RightUpLeg_virtual
	{
		OFFSET 0.000000 0.000000 0.000000
		CHANNELS 3 Xrotation Yrotation Zrotation
		JOINT RightUpLeg
		{
			OFFSET -18.735201 -5.666702 -4.541200
			CHANNELS 3 Xrotation Yrotation Zrotation
			JOINT RightLeg
			{
				OFFSET 0.018946 -31.938133 0.493100
				CHANNELS 3 Xrotation Yrotation Zrotation
				JOINT RightFoot
				{
					OFFSET -0.018946 -31.938126 -4.336299
					CHANNELS 3 Xrotation Yrotation Zrotation
					JOINT RightToeBase
					{
						OFFSET -0.943001 -26.722004 15.023500
						CHANNELS 3 Xrotation Yrotation Zrotation
						End Site
						{
							OFFSET 0 0 0
						}
					}
				}
			}
		}
	}
	JOINT Hips_virtual
	{
		OFFSET 0.000000 0.000000 0.000000
		CHANNELS 3 Xrotation Yrotation Zrotation
		JOINT Hips
		{
			OFFSET -0.000000 -0.000000 -0.000000
			CHANNELS 3 Xrotation Yrotation Zrotation
			JOINT Spine
			{
				OFFSET 0.000000 10.199997 -0.299500
				CHANNELS 3 Xrotation Yrotation Zrotation
				JOINT Spine1
				{
					OFFSET 0.000000 11.900002 -1.516600
					CHANNELS 3 Xrotation Yrotation Zrotation
					JOINT Spine2
					{
						OFFSET 0.000000 13.600006 -2.842500
						CHANNELS 3 Xrotation Yrotation Zrotation
						JOINT Neck_virtual
						{
							OFFSET 0.000000 0.000000 0.000000
							CHANNELS 3 Xrotation Yrotation Zrotation
							JOINT Neck
							{
								OFFSET 0.000000 9.624100 -2.890100
								CHANNELS 3 Xrotation Yrotation Zrotation
								JOINT Head
								{
									OFFSET 0.000000 14.068802 -1.351900
									CHANNELS 3 Xrotation Yrotation Zrotation
									End Site
									{
										OFFSET 0 0 0
									}
								}
							}
						}
						JOINT LeftShoulder_virtual
						{
							OFFSET 0.000000 0.000000 0.000000
							CHANNELS 3 Xrotation Yrotation Zrotation
							JOINT LeftShoulder
							{
								OFFSET 15.263000 10.923401 -0.547700
								CHANNELS 3 Xrotation Yrotation Zrotation
								JOINT LeftArm
								{
									OFFSET 25.438599 -2.830597 -13.032500
									CHANNELS 3 Xrotation Yrotation Zrotation
									JOINT LeftForeArm
									{
										OFFSET 29.960503 0.000000 0.000000
										CHANNELS 3 Xrotation Yrotation Zrotation
										JOINT LeftHand
										{
											OFFSET 27.849251 0.000000 0.000000
											CHANNELS 3 Xrotation Yrotation Zrotation
											End Site
											{
												OFFSET 0 0 0
											}
										}
									}
								}
							}
						}
						JOINT RightShoulder_virtual
						{
							OFFSET 0.000000 0.000000 0.000000
							CHANNELS 3 Xrotation Yrotation Zrotation
							JOINT RightShoulder
							{
								OFFSET -15.263000 10.923401 -0.547700
								CHANNELS 3 Xrotation Yrotation Zrotation
								JOINT RightArm
								{
									OFFSET -25.438599 -2.830597 -13.032500
									CHANNELS 3 Xrotation Yrotation Zrotation
									JOINT RightForeArm
									{
										OFFSET -29.960503 0.000000 0.000000
										CHANNELS 3 Xrotation Yrotation Zrotation
										JOINT RightHand
										{
											OFFSET -27.849251 0.000000 0.000000
											CHANNELS 3 Xrotation Yrotation Zrotation
											End Site
											{
												OFFSET 0 0 0
											}
										}
									}
								}
							}
						}
					}
				}
			}
		}
	}
}
MOTION
Frames: 9
Frame Time: 0.03333333
-0.428414 84.124619 35.987900 0.000000 0.000000 0.000000 3.655289 -29.749702 3.442816 -43.524291 2.323932 20.193649 86.214015 -2.651912 -2.276026 23.876253 -3.332728 -10.825221 0.000000 0.000000 0.000000 3.564298 5.901868 7.275776 -26.296273 -4.813169 -7.334024 44.500503 -1.266145 -4.335738 -10.782694 -2.401063 4.275968 0.000000 0.000000 0.000000 4.360797 0.129987 -0.442997 13.684244 2.103690 -4.744685 9.725693 1.963659 2.353225 4.483233 1.225343 0.935151 0.000000 0.000000 0.000000 3.921827 0.530795 -0.165736 -0.371602 0.058299 -0.015031 0.000000 0.000000 0.000000 4.764248 0.823851 -0.849467 1.351949 -5.329673 -8.987466 -1.256520 -20.044983 -57.518348 4.370783 -58.091818 -3.616616 0.000000 0.000000 0.000000 5.155624 0.647436 0.608042 1.447400 6.190097 8.088709 -18.050588 25.071859 46.745200 0.040054 76.568852 0.373210 0.000000 0.000000 0.000000 
1.805260 84.728554 40.022869 0.000000 0.000000 0.000000 -0.553903 -27.899204 2.776530 -47.893894 1.741755 20.463452 85.560769 -2.279907 -2.242618 22.411341 -2.843413 -10.454531 0.000000 0.000000 0.000000 4.377293 4.875702 6.685399 -24.932550 -5.035021 -7.753499 44.507193 -1.470627 -4.945741 -10.939184 -2.260072 3.150004 0.000000 0.000000 0.000000 3.264805 -0.427445 -0.940912 16.476832 0.885579 -2.683365 9.604416 1.995781 1.870308 4.473254 1.470420 1.031134 0.000000 0.000000 0.000000 3.810726 0.612743 -0.418902 -0.336191 0.170529 0.048184 0.000000 0.000000 0.000000 3.945744 0.931732 -0.922832 1.566376 -4.347384 -9.564398 -1.447876 -17.621413 -57.837284 5.564747 -55.987242 -2.412546 0.000000 0.000000 0.000000 4.833658 0.660772 0.395883 1.832537 5.479204 8.493659 -18.416138 27.782542 45.148237 0.521732 80.692572 -0.654670 0.000000 0.000000 0.000000 
2.275220 84.773079 44.833588 0.000000 0.000000 0.000000 -4.530181 -23.394984 0.201364 -51.127487 2.751236 18.759746 83.325268 -2.058938 -2.604599 20.304459 -2.288013 -10.787164 0.000000 0.000000 0.000000 5.209120 3.173358 7.001252 -23.563644 -5.630910 -7.361874 42.623375 -1.905380 -4.926299 -12.337428 -2.771385 2.779119 0.000000 0.000000 0.000000 4.064235 0.211258 -0.015019 14.206392 1.200469 -1.688425 10.391186 2.404051 0.500079 3.888928 1.695970 0.770703 0.000000 0.000000 0.000000 4.210519 0.729035 -0.699400 -0.240008 0.224031 -0.043020 0.000000 0.000000 0.000000 3.997352 1.440513 -1.054690 1.569650 -4.387459 -10.641330 -1.185753 -15.245356 -57.913072 6.411421 -52.917307 -1.573132 0.000000 0.000000 0.000000 4.555662 0.858410 -0.029076 2.097548 4.641636 7.881620 -19.131041 25.686403 44.691099 -2.272869 78.475588 0.992770 0.000000 0.000000 0.000000 
1.918334 84.865150 48.510414 0.000000 0.000000 0.000000 -8.004572 -22.682946 -3.358236 -54.416930 3.660553 16.180233 81.029403 -2.592735 -3.510541 17.514434 -2.166151 -12.538078 0.000000 0.000000 0.000000 5.471495 2.468217 7.092048 -22.806070 -5.841621 -7.053490 43.208712 -1.962029 -4.860866 -11.768978 -2.812416 2.774983 0.000000 0.000000 0.000000 3.119312 1.420694 -0.657878 15.290044 1.705786 -3.012626 9.958914 2.342102 0.804634 4.337492 2.102985 0.291983 0.000000 0.000000 0.000000 4.451030 0.684687 -0.955306 -0.245640 0.231525 -0.152062 0.000000 0.000000 0.000000 4.724656 1.405850 -1.203893 1.572337 -3.929865 -10.244379 -3.032727 -15.127805 -59.046569 4.497509 -53.982759 -2.532669 0.000000 0.000000 0.000000 4.901958 0.893766 -0.361316 1.719429 4.023725 8.072221 -17.697754 25.431748 42.283160 1.693967 79.347093 -3.160109 0.000000 0.000000 0.000000 
2.420576 83.947350 52.851017 0.000000 0.000000 0.000000 -10.519798 -21.282115 -4.703862 -56.994326 3.993494 15.408533 78.005712 -4.115279 -4.208504 13.859614 -2.980969 -14.794909 0.000000 0.000000 0.000000 6.874766 1.065139 7.330909 -20.595382 -6.436144 -6.642965 43.221000 -2.085719 -4.384717 -11.481339 -3.154639 3.325454 0.000000 0.000000 0.000000 3.683333 1.962770 -1.102839 10.362094 0.227713 -4.082948 10.719774 3.095636 0.187417 3.848968 2.260961 0.463001 0.000000 0.000000 0.000000 5.159472 0.897049 -1.044531 -0.188850 0.355085 -0.092663 0.000000 0.000000 0.000000 4.735366 1.421062 -1.365415 1.539246 -2.702245 -11.084051 -2.787150 -13.327282 -58.698352 3.846410 -53.674574 -2.791963 0.000000 0.000000 0.000000 4.836862 0.894062 -0.331890 2.071736 4.093363 8.031025 -15.061628 23.348822 41.420606 1.204050 78.689810 -2.271318 0.000000 0.000000 0.000000 
2.703303 84.695374 59.634186 0.000000 0.000000 0.000000 -10.343090 -19.842750 -5.968606 -56.640143 4.990749 14.298547 73.384358 -4.663837 -4.878166 9.798840 -2.832495 -16.037757 0.000000 0.000000 0.000000 6.924332 2.159769 7.633822 -19.838230 -6.167497 -5.850026 44.626936 -1.320507 -3.718011 -9.841837 -2.679476 4.793229 0.000000 0.000000 0.000000 2.394571 -0.915542 -0.272178 13.368942 3.589777 -2.795924 9.110173 2.542043 0.256755 4.098390 2.441816 0.411849 0.000000 0.000000 0.000000 5.650851 1.033160 -1.013376 0.403601 0.300657 -0.050425 0.000000 0.000000 0.000000 4.108679 1.484384 -1.523858 1.421740 -2.616202 -10.862152 -2.451819 -12.504046 -57.773749 4.836758 -53.410194 -1.640345 0.000000 0.000000 0.000000 5.173570 0.774465 -0.212656 2.290231 3.282719 8.721179 -14.541691 23.927382 42.888339 3.359226 75.866927 -3.196106 0.000000 0.000000 0.000000 
2.597220 85.232231 63.421188 0.000000 0.000000 0.000000 -10.257359 -16.044160 -5.298197 -56.669823 5.572791 14.807295 68.501470 -4.786999 -4.934782 5.992776 -2.650084 -16.100409 0.000000 0.000000 0.000000 6.021116 3.892176 7.547201 -20.371347 -5.513011 -5.459113 47.010679 -0.971840 -3.383149 -7.240863 -2.304265 5.452356 0.000000 0.000000 0.000000 2.832388 0.505577 -0.038232 11.780919 5.533461 -3.333188 8.323543 3.241782 0.467891 4.190080 1.964401 0.505857 0.000000 0.000000 0.000000 5.741971 1.043907 -0.807706 0.246484 0.212097 0.016662 0.000000 0.000000 0.000000 4.133497 1.655173 -1.460547 1.631760 -2.750899 -10.667838 0.180871 -11.011126 -56.069511 4.841528 -52.100905 -1.576089 0.000000 0.000000 0.000000 5.042497 0.797320 0.137279 2.212675 2.097687 10.202710 -12.908491 21.472925 43.768716 1.758662 72.657155 -0.837554 0.000000 0.000000 0.000000 
3.461423 85.046913 68.946198 0.000000 0.000000 0.000000 -9.664082 -15.416613 -5.923642 -55.699609 6.128739 14.021053 64.996039 -4.012377 -4.521435 3.500465 -1.979316 -14.865876 0.000000 0.000000 0.000000 5.970407 6.050828 7.160684 -19.866399 -4.827902 -5.425982 52.329262 -0.558580 -3.475167 -2.507372 -1.391939 5.596720 0.000000 0.000000 0.000000 2.717825 -0.955171 -0.182189 10.991669 7.436218 -4.244078 7.858151 3.243782 0.899807 3.190250 2.039837 0.399392 0.000000 0.000000 0.000000 5.399805 1.146998 -0.948728 0.044521 0.115532 0.146050 0.000000 0.000000 0.000000 3.989131 1.623422 -1.712499 1.424446 -1.347605 -11.249994 0.775738 -7.476479 -55.988027 4.224687 -51.821233 -1.058061 0.000000 0.000000 0.000000 4.935721 0.902497 0.256795 1.414304 1.787330 12.449335 -9.594047 18.714676 44.927670 1.406278 70.213511 0.897493 0.000000 0.000000 0.000000 
3.015817 83.753792 73.760513 0.000000 0.000000 0.000000 -8.900773 -15.368897 -6.064233 -54.124857 6.329149 13.362726 60.530823 -3.125278 -3.487596 1.155211 -1.624190 -12.789677 0.000000 0.000000 0.000000 4.385950 6.446222 7.203613 -22.014212 -4.544539 -5.425373 57.498684 0.441920 -2.926188 1.984226 -0.240002 7.374158 0.000000 0.000000 0.000000 2.993796 -0.573820 0.357468 8.425623 8.613634 -4.502686 7.526002 3.037596 0.512223 3.085179 1.989869 0.395634 0.000000 0.000000 0.000000 5.413216 1.252537 -0.838273 0.020890 0.095773 0.181385 0.000000 0.000000 0.000000 3.736445 1.646110 -1.819614 1.546417 -1.803199 -11.252160 0.098449 -5.453976 -53.540477 3.581386 -49.631829 -0.679597 0.000000 0.000000 0.000000 4.469298 0.864819 0.568646 1.323240 2.055445 13.372237 -7.566890 16.856601 44.711460 2.132807 64.890683 0.829491 0.000000 0.000000 0.000000 
